# xmcd
#
# Track frame offsets: 
#        182
#        4050
#        23045
#        46327
#        75032
#        94815
#        115287
#        137390
#        156987
#        180440
#        202137
#        207312
#        228537
#        248795
#
# Disc length: 3543 seconds
#
# Revision: 2
# Processed by: cddbd v1.4PL0 Copyright (c) Steve Scherf et al.
# Submitted via: ExactAudioCopy v0.90b4
#
DISCID=ac0dd50e
DTITLE=For Lovers Only - For Lovers Only
DYEAR=1994
DGENRE=
TTITLE0=The Closer I Get to You (Interlude)
TTITLE1=I Ain't Stuck on Stupid
TTITLE2=The Closer I Get to You
TTITLE3=Anything You Want
TTITLE4=Gowiththeflo
TTITLE5=Calling Out Your Name
TTITLE6=Nasty Groove
TTITLE7=Just Because You're Fine
TTITLE8=I Don't Wanna Let (Your Love Go)
TTITLE9=I Just Wanna Be
TTITLE10=Take Me
TTITLE11=Take Me
TTITLE12=Was Sex All We Had
TTITLE13=Do What You Wanna Do
EXTD=
EXTT0=
EXTT1=
EXTT2=
EXTT3=
EXTT4=
EXTT5=
EXTT6=
EXTT7=
EXTT8=
EXTT9=
EXTT10=
EXTT11=
EXTT12=
EXTT13=
PLAYORDER=
